<mxfile host="app.diagrams.net" modified="2023-07-25T19:16:38.037Z" agent="Mozilla/5.0 (Windows NT 10.0; Win64; x64) AppleWebKit/537.36 (KHTML, like Gecko) Chrome/115.0.0.0 Safari/537.36" etag="j12LqA7jeXEgABzOik0P" version="21.6.5" type="device">
  <diagram name="Página-1" id="NN_8PPng1AFwNW3Biz9l">
    <mxGraphModel dx="1500" dy="739" grid="1" gridSize="10" guides="1" tooltips="1" connect="1" arrows="1" fold="1" page="1" pageScale="1" pageWidth="827" pageHeight="1169" math="0" shadow="0">
      <root>
        <mxCell id="0" />
        <mxCell id="1" parent="0" />
        <mxCell id="2ybAQO_uClmqS2pj12lF-1" value="Uma clínica veterinária deseja cadastrar os pets que são atendidos em seu local.&#xa;&#xa;&#xa;- a clínica contém um endereço;&#xa;- os pets deverão ter nome, data de nascimento, tipo de pet;&#xa;- os pets deverão ter raça;&#xa;- os pets deverão ter donos;&#xa;- a clínica deseja cadastrar seus veterinários e todo atendimento de pet será feito por um veterinário;" style="text;whiteSpace=wrap;" parent="1" vertex="1">
          <mxGeometry x="85" y="30" width="560" height="150" as="geometry" />
        </mxCell>
        <mxCell id="2ybAQO_uClmqS2pj12lF-2" value="Clínica" style="rounded=0;whiteSpace=wrap;html=1;" parent="1" vertex="1">
          <mxGeometry x="267" y="260" width="120" height="60" as="geometry" />
        </mxCell>
        <mxCell id="2ybAQO_uClmqS2pj12lF-3" style="edgeStyle=orthogonalEdgeStyle;rounded=0;orthogonalLoop=1;jettySize=auto;html=1;exitX=1;exitY=0.5;exitDx=0;exitDy=0;entryX=0.5;entryY=0;entryDx=0;entryDy=0;endArrow=none;endFill=0;" parent="1" source="2ybAQO_uClmqS2pj12lF-4" target="2ybAQO_uClmqS2pj12lF-2" edge="1">
          <mxGeometry relative="1" as="geometry" />
        </mxCell>
        <mxCell id="2ybAQO_uClmqS2pj12lF-4" value="Endereço" style="ellipse;whiteSpace=wrap;html=1;" parent="1" vertex="1">
          <mxGeometry x="172" y="190" width="120" height="40" as="geometry" />
        </mxCell>
        <mxCell id="PG2TDqOrH2tMl1uBY6c7-28" style="edgeStyle=orthogonalEdgeStyle;rounded=0;orthogonalLoop=1;jettySize=auto;html=1;exitX=0.5;exitY=1;exitDx=0;exitDy=0;entryX=1;entryY=0.75;entryDx=0;entryDy=0;endArrow=none;endFill=0;" edge="1" parent="1" source="2ybAQO_uClmqS2pj12lF-5" target="2ybAQO_uClmqS2pj12lF-43">
          <mxGeometry relative="1" as="geometry" />
        </mxCell>
        <mxCell id="2ybAQO_uClmqS2pj12lF-5" value="Expediente" style="ellipse;whiteSpace=wrap;html=1;" parent="1" vertex="1">
          <mxGeometry x="595" y="430" width="120" height="40" as="geometry" />
        </mxCell>
        <mxCell id="PG2TDqOrH2tMl1uBY6c7-20" value="" style="edgeStyle=orthogonalEdgeStyle;rounded=0;orthogonalLoop=1;jettySize=auto;html=1;endArrow=none;endFill=0;" edge="1" parent="1" source="2ybAQO_uClmqS2pj12lF-6" target="2ybAQO_uClmqS2pj12lF-53">
          <mxGeometry relative="1" as="geometry" />
        </mxCell>
        <mxCell id="2ybAQO_uClmqS2pj12lF-6" value="Pets" style="rounded=0;whiteSpace=wrap;html=1;" parent="1" vertex="1">
          <mxGeometry x="267" y="910" width="120" height="60" as="geometry" />
        </mxCell>
        <mxCell id="2ybAQO_uClmqS2pj12lF-32" style="edgeStyle=orthogonalEdgeStyle;rounded=0;orthogonalLoop=1;jettySize=auto;html=1;exitX=1;exitY=0.5;exitDx=0;exitDy=0;entryX=0;entryY=0.5;entryDx=0;entryDy=0;endArrow=none;endFill=0;" parent="1" source="2ybAQO_uClmqS2pj12lF-12" target="2ybAQO_uClmqS2pj12lF-6" edge="1">
          <mxGeometry relative="1" as="geometry" />
        </mxCell>
        <mxCell id="2ybAQO_uClmqS2pj12lF-12" value="Nome" style="ellipse;whiteSpace=wrap;html=1;" parent="1" vertex="1">
          <mxGeometry x="100" y="860" width="120" height="40" as="geometry" />
        </mxCell>
        <mxCell id="2ybAQO_uClmqS2pj12lF-33" style="edgeStyle=orthogonalEdgeStyle;rounded=0;orthogonalLoop=1;jettySize=auto;html=1;exitX=1;exitY=0.5;exitDx=0;exitDy=0;entryX=0;entryY=0.5;entryDx=0;entryDy=0;endArrow=none;endFill=0;" parent="1" source="2ybAQO_uClmqS2pj12lF-25" target="2ybAQO_uClmqS2pj12lF-6" edge="1">
          <mxGeometry relative="1" as="geometry" />
        </mxCell>
        <mxCell id="2ybAQO_uClmqS2pj12lF-25" value="DataNascimento" style="ellipse;whiteSpace=wrap;html=1;" parent="1" vertex="1">
          <mxGeometry x="100" y="920" width="120" height="40" as="geometry" />
        </mxCell>
        <mxCell id="PG2TDqOrH2tMl1uBY6c7-5" style="edgeStyle=orthogonalEdgeStyle;rounded=0;orthogonalLoop=1;jettySize=auto;html=1;exitX=1;exitY=0.5;exitDx=0;exitDy=0;entryX=0;entryY=0.5;entryDx=0;entryDy=0;endArrow=none;endFill=0;" edge="1" parent="1" source="2ybAQO_uClmqS2pj12lF-36" target="2ybAQO_uClmqS2pj12lF-6">
          <mxGeometry relative="1" as="geometry" />
        </mxCell>
        <mxCell id="2ybAQO_uClmqS2pj12lF-36" value="Cliente" style="ellipse;whiteSpace=wrap;html=1;" parent="1" vertex="1">
          <mxGeometry x="100" y="980" width="120" height="40" as="geometry" />
        </mxCell>
        <mxCell id="PG2TDqOrH2tMl1uBY6c7-21" style="edgeStyle=orthogonalEdgeStyle;rounded=0;orthogonalLoop=1;jettySize=auto;html=1;exitX=0.5;exitY=0;exitDx=0;exitDy=0;entryX=0.5;entryY=1;entryDx=0;entryDy=0;endArrow=none;endFill=0;" edge="1" parent="1" source="2ybAQO_uClmqS2pj12lF-43" target="PG2TDqOrH2tMl1uBY6c7-15">
          <mxGeometry relative="1" as="geometry" />
        </mxCell>
        <mxCell id="2ybAQO_uClmqS2pj12lF-43" value="Veterinario" style="rounded=0;whiteSpace=wrap;html=1;" parent="1" vertex="1">
          <mxGeometry x="269" y="460" width="120" height="60" as="geometry" />
        </mxCell>
        <mxCell id="PG2TDqOrH2tMl1uBY6c7-29" style="edgeStyle=orthogonalEdgeStyle;rounded=0;orthogonalLoop=1;jettySize=auto;html=1;exitX=0.5;exitY=1;exitDx=0;exitDy=0;endArrow=none;endFill=0;" edge="1" parent="1" source="2ybAQO_uClmqS2pj12lF-46" target="2ybAQO_uClmqS2pj12lF-43">
          <mxGeometry relative="1" as="geometry" />
        </mxCell>
        <mxCell id="2ybAQO_uClmqS2pj12lF-46" value="Nome" style="ellipse;whiteSpace=wrap;html=1;" parent="1" vertex="1">
          <mxGeometry x="460" y="430" width="120" height="40" as="geometry" />
        </mxCell>
        <mxCell id="PG2TDqOrH2tMl1uBY6c7-19" value="" style="edgeStyle=orthogonalEdgeStyle;rounded=0;orthogonalLoop=1;jettySize=auto;html=1;endArrow=none;endFill=0;" edge="1" parent="1" source="2ybAQO_uClmqS2pj12lF-53" target="PG2TDqOrH2tMl1uBY6c7-10">
          <mxGeometry relative="1" as="geometry" />
        </mxCell>
        <mxCell id="2ybAQO_uClmqS2pj12lF-53" value="Atende" style="rhombus;whiteSpace=wrap;html=1;" parent="1" vertex="1">
          <mxGeometry x="287" y="800" width="80" height="80" as="geometry" />
        </mxCell>
        <mxCell id="PG2TDqOrH2tMl1uBY6c7-12" style="edgeStyle=orthogonalEdgeStyle;rounded=0;orthogonalLoop=1;jettySize=auto;html=1;exitX=0.5;exitY=0;exitDx=0;exitDy=0;entryX=0.5;entryY=1;entryDx=0;entryDy=0;endArrow=none;endFill=0;" edge="1" parent="1" source="PG2TDqOrH2tMl1uBY6c7-2" target="PG2TDqOrH2tMl1uBY6c7-6">
          <mxGeometry relative="1" as="geometry" />
        </mxCell>
        <mxCell id="PG2TDqOrH2tMl1uBY6c7-2" value="TipoPet" style="rounded=0;whiteSpace=wrap;html=1;" vertex="1" parent="1">
          <mxGeometry x="680" y="1055" width="120" height="60" as="geometry" />
        </mxCell>
        <mxCell id="PG2TDqOrH2tMl1uBY6c7-11" style="edgeStyle=orthogonalEdgeStyle;rounded=0;orthogonalLoop=1;jettySize=auto;html=1;exitX=0.5;exitY=0;exitDx=0;exitDy=0;entryX=0.5;entryY=1;entryDx=0;entryDy=0;endArrow=none;endFill=0;" edge="1" parent="1" source="PG2TDqOrH2tMl1uBY6c7-3" target="PG2TDqOrH2tMl1uBY6c7-4">
          <mxGeometry relative="1" as="geometry" />
        </mxCell>
        <mxCell id="PG2TDqOrH2tMl1uBY6c7-3" value="Raça" style="rounded=0;whiteSpace=wrap;html=1;" vertex="1" parent="1">
          <mxGeometry x="517" y="1055" width="120" height="60" as="geometry" />
        </mxCell>
        <mxCell id="PG2TDqOrH2tMl1uBY6c7-22" style="edgeStyle=orthogonalEdgeStyle;rounded=0;orthogonalLoop=1;jettySize=auto;html=1;entryX=1;entryY=0.75;entryDx=0;entryDy=0;endArrow=none;endFill=0;" edge="1" parent="1" source="PG2TDqOrH2tMl1uBY6c7-4" target="2ybAQO_uClmqS2pj12lF-6">
          <mxGeometry relative="1" as="geometry" />
        </mxCell>
        <mxCell id="PG2TDqOrH2tMl1uBY6c7-4" value="Possui" style="rhombus;whiteSpace=wrap;html=1;" vertex="1" parent="1">
          <mxGeometry x="537" y="945" width="80" height="80" as="geometry" />
        </mxCell>
        <mxCell id="PG2TDqOrH2tMl1uBY6c7-23" style="edgeStyle=orthogonalEdgeStyle;rounded=0;orthogonalLoop=1;jettySize=auto;html=1;exitX=0.5;exitY=0;exitDx=0;exitDy=0;entryX=1;entryY=0.25;entryDx=0;entryDy=0;endArrow=none;endFill=0;" edge="1" parent="1" source="PG2TDqOrH2tMl1uBY6c7-6" target="2ybAQO_uClmqS2pj12lF-6">
          <mxGeometry relative="1" as="geometry" />
        </mxCell>
        <mxCell id="PG2TDqOrH2tMl1uBY6c7-6" value="Possui" style="rhombus;whiteSpace=wrap;html=1;" vertex="1" parent="1">
          <mxGeometry x="698" y="945" width="80" height="80" as="geometry" />
        </mxCell>
        <mxCell id="PG2TDqOrH2tMl1uBY6c7-17" style="edgeStyle=orthogonalEdgeStyle;rounded=0;orthogonalLoop=1;jettySize=auto;html=1;endArrow=none;endFill=0;" edge="1" parent="1" source="PG2TDqOrH2tMl1uBY6c7-10">
          <mxGeometry relative="1" as="geometry">
            <mxPoint x="327" y="660" as="targetPoint" />
          </mxGeometry>
        </mxCell>
        <mxCell id="PG2TDqOrH2tMl1uBY6c7-24" style="edgeStyle=orthogonalEdgeStyle;rounded=0;orthogonalLoop=1;jettySize=auto;html=1;entryX=0.5;entryY=1;entryDx=0;entryDy=0;endArrow=none;endFill=0;" edge="1" parent="1" source="PG2TDqOrH2tMl1uBY6c7-10" target="2ybAQO_uClmqS2pj12lF-43">
          <mxGeometry relative="1" as="geometry" />
        </mxCell>
        <mxCell id="PG2TDqOrH2tMl1uBY6c7-10" value="Atendimento" style="rounded=0;whiteSpace=wrap;html=1;" vertex="1" parent="1">
          <mxGeometry x="267" y="700" width="120" height="60" as="geometry" />
        </mxCell>
        <mxCell id="PG2TDqOrH2tMl1uBY6c7-16" style="edgeStyle=orthogonalEdgeStyle;rounded=0;orthogonalLoop=1;jettySize=auto;html=1;exitX=0.5;exitY=0;exitDx=0;exitDy=0;entryX=0.5;entryY=1;entryDx=0;entryDy=0;endArrow=none;endFill=0;" edge="1" parent="1" source="PG2TDqOrH2tMl1uBY6c7-15" target="2ybAQO_uClmqS2pj12lF-2">
          <mxGeometry relative="1" as="geometry" />
        </mxCell>
        <mxCell id="PG2TDqOrH2tMl1uBY6c7-15" value="Possui" style="rhombus;whiteSpace=wrap;html=1;" vertex="1" parent="1">
          <mxGeometry x="289" y="350" width="80" height="80" as="geometry" />
        </mxCell>
        <mxCell id="PG2TDqOrH2tMl1uBY6c7-26" value="Possui" style="rhombus;whiteSpace=wrap;html=1;" vertex="1" parent="1">
          <mxGeometry x="289" y="570" width="80" height="80" as="geometry" />
        </mxCell>
        <mxCell id="PG2TDqOrH2tMl1uBY6c7-30" value="1" style="text;html=1;align=center;verticalAlign=middle;resizable=0;points=[];autosize=1;strokeColor=none;fillColor=none;" vertex="1" parent="1">
          <mxGeometry x="325" y="320" width="30" height="30" as="geometry" />
        </mxCell>
        <mxCell id="PG2TDqOrH2tMl1uBY6c7-31" value="N" style="text;html=1;align=center;verticalAlign=middle;resizable=0;points=[];autosize=1;strokeColor=none;fillColor=none;" vertex="1" parent="1">
          <mxGeometry x="325" y="430" width="30" height="30" as="geometry" />
        </mxCell>
        <mxCell id="PG2TDqOrH2tMl1uBY6c7-32" value="1" style="text;html=1;align=center;verticalAlign=middle;resizable=0;points=[];autosize=1;strokeColor=none;fillColor=none;" vertex="1" parent="1">
          <mxGeometry x="325" y="880" width="30" height="30" as="geometry" />
        </mxCell>
        <mxCell id="PG2TDqOrH2tMl1uBY6c7-33" value="1" style="text;html=1;align=center;verticalAlign=middle;resizable=0;points=[];autosize=1;strokeColor=none;fillColor=none;" vertex="1" parent="1">
          <mxGeometry x="325" y="760" width="30" height="30" as="geometry" />
        </mxCell>
        <mxCell id="PG2TDqOrH2tMl1uBY6c7-34" value="N" style="text;html=1;align=center;verticalAlign=middle;resizable=0;points=[];autosize=1;strokeColor=none;fillColor=none;" vertex="1" parent="1">
          <mxGeometry x="325" y="670" width="30" height="30" as="geometry" />
        </mxCell>
        <mxCell id="PG2TDqOrH2tMl1uBY6c7-35" value="1" style="text;html=1;align=center;verticalAlign=middle;resizable=0;points=[];autosize=1;strokeColor=none;fillColor=none;" vertex="1" parent="1">
          <mxGeometry x="550" y="1025" width="30" height="30" as="geometry" />
        </mxCell>
        <mxCell id="PG2TDqOrH2tMl1uBY6c7-36" value="1" style="text;html=1;align=center;verticalAlign=middle;resizable=0;points=[];autosize=1;strokeColor=none;fillColor=none;" vertex="1" parent="1">
          <mxGeometry x="740" y="1025" width="30" height="30" as="geometry" />
        </mxCell>
        <mxCell id="PG2TDqOrH2tMl1uBY6c7-38" value="N" style="text;html=1;align=center;verticalAlign=middle;resizable=0;points=[];autosize=1;strokeColor=none;fillColor=none;" vertex="1" parent="1">
          <mxGeometry x="384" y="960" width="30" height="30" as="geometry" />
        </mxCell>
        <mxCell id="PG2TDqOrH2tMl1uBY6c7-39" value="N" style="text;html=1;align=center;verticalAlign=middle;resizable=0;points=[];autosize=1;strokeColor=none;fillColor=none;" vertex="1" parent="1">
          <mxGeometry x="387" y="900" width="30" height="30" as="geometry" />
        </mxCell>
      </root>
    </mxGraphModel>
  </diagram>
</mxfile>
